# xmcd
#
# Track frame offsets:
#	183
#	25940
#	46460
#	66855
#	94353
#	116308
#	142498
#	161953
#	184148
#
# Disc length: 2740 seconds
#
# Revision: 1
# Processed by: cddbd v1.5.1PL2 Copyright (c) Steve Scherf et al.
# Submitted via: audiograbber 1.83.01
#
DISCID=870ab209
DTITLE=Little Sonny - Sonny Side Up
DYEAR=1995
DGENRE=Blues
TTITLE0=Sonny Side Up
TTITLE1=Positive Mind
TTITLE2=I Got To Find My Baby
TTITLE3=Let Me Love You
TTITLE4=Ready Set Go
TTITLE5=The Best Of The Best
TTITLE6=I'm With You All The Way
TTITLE7=Tough Times Never Last
TTITLE8=The Next Dance With You
EXTD=
EXTT0=
EXTT1=
EXTT2=
EXTT3=
EXTT4=
EXTT5=
EXTT6=
EXTT7=
EXTT8=
PLAYORDER=
